<svg width="23" height="22" viewBox="0 0 23 22" fill="none" xmlns="http://www.w3.org/2000/svg">
<path d="M18.3038 11.8089L17.5706 11.1289L18.3038 11.8089ZM11.2327 4.73783L11.9127 5.47103L11.2327 4.73783ZM21.6611 3.27232L22.6527 3.402L21.6611 3.27232ZM19.7693 1.38046L19.899 2.37202L19.7693 1.38046ZM6.49459 11.6506L7.39249 12.0908L6.49459 11.6506ZM11.391 16.547L10.9508 15.6491L11.391 16.547ZM5.20723 16.8674C5.59775 16.4769 5.59775 15.8437 5.20723 15.4532C4.8167 15.0627 4.18354 15.0627 3.79302 15.4532L5.20723 16.8674ZM0.964588 18.2816C0.574065 18.6722 0.574064 19.3053 0.964588 19.6958C1.35511 20.0864 1.98828 20.0864 2.3788 19.6958L0.964588 18.2816ZM7.32855 18.9887C7.71907 18.5982 7.71907 17.965 7.32855 17.5745C6.93802 17.184 6.30486 17.184 5.91433 17.5745L7.32855 18.9887ZM4.50012 18.9887C4.1096 19.3793 4.1096 20.0124 4.50012 20.4029C4.89065 20.7935 5.52381 20.7935 5.91434 20.4029L4.50012 18.9887ZM10.5963 20.082L11.5863 19.9406L11.5863 19.9406L10.5963 20.082ZM15.7582 16.6172L16.7482 16.4758L15.7582 16.6172ZM2.95956 12.4453L3.10098 11.4553L3.10098 11.4553L2.95956 12.4453ZM6.42438 7.2834L6.28296 8.27335L6.28296 8.27335L6.42438 7.2834ZM9.92724 15.4532L7.58839 13.1143L6.17417 14.5286L8.51303 16.8674L9.92724 15.4532ZM17.5706 11.1289C15.7108 13.1341 12.6729 14.8048 10.9508 15.6491L11.8312 17.4449C13.574 16.5905 16.9065 14.786 19.037 12.4889L17.5706 11.1289ZM7.39249 12.0908C8.23676 10.3687 9.90745 7.33084 11.9127 5.47103L10.5527 4.00464C8.25557 6.13512 6.45109 9.4676 5.59669 11.2104L7.39249 12.0908ZM20.6696 3.14264C20.3665 5.46004 19.5658 8.97761 17.5706 11.1289L19.037 12.4889C21.4896 9.84441 22.3434 5.76695 22.6527 3.402L20.6696 3.14264ZM11.9127 5.47103C14.064 3.4758 17.5815 2.6751 19.899 2.37202L19.6396 0.388907C17.2746 0.698211 13.1972 1.55195 10.5527 4.00464L11.9127 5.47103ZM22.6527 3.402C22.8851 1.62531 21.4163 0.156538 19.6396 0.388907L19.899 2.37202C20.3731 2.31001 20.7316 2.6685 20.6696 3.14264L22.6527 3.402ZM7.58839 13.1143C7.29598 12.8219 7.23415 12.4138 7.39249 12.0908L5.59669 11.2104C5.03851 12.349 5.31561 13.67 6.17417 14.5286L7.58839 13.1143ZM8.51303 16.8674C9.37159 17.726 10.6926 18.0031 11.8312 17.4449L10.9508 15.6491C10.6278 15.8074 10.2197 15.7456 9.92724 15.4532L8.51303 16.8674ZM3.79302 15.4532L0.964588 18.2816L2.3788 19.6958L5.20723 16.8674L3.79302 15.4532ZM5.91433 17.5745L4.50012 18.9887L5.91434 20.4029L7.32855 18.9887L5.91433 17.5745ZM13.0005 5.79845C11.8289 6.97003 11.8289 8.86952 13.0005 10.0411L14.4147 8.62688C14.0242 8.23635 14.0242 7.60319 14.4147 7.21267L13.0005 5.79845ZM13.0005 10.0411C14.1721 11.2127 16.0716 11.2127 17.2431 10.0411L15.8289 8.62688C15.4384 9.0174 14.8052 9.0174 14.4147 8.62688L13.0005 10.0411ZM17.2431 10.0411C18.4147 8.86952 18.4147 6.97003 17.2431 5.79845L15.8289 7.21267C16.2194 7.60319 16.2194 8.23636 15.8289 8.62688L17.2431 10.0411ZM17.2431 5.79845C16.0716 4.62688 14.1721 4.62688 13.0005 5.79845L14.4147 7.21267C14.8052 6.82214 15.4384 6.82214 15.8289 7.21267L17.2431 5.79845ZM14.7683 16.7586L11.5863 19.9406L13.0005 21.3548L16.1825 18.1728L14.7683 16.7586ZM11.5863 19.9406L11.162 16.9707L9.18212 17.2536L9.60638 20.2234L11.5863 19.9406ZM14.4854 14.7787L14.7683 16.7586L16.7482 16.4758L16.4653 14.4959L14.4854 14.7787ZM11.5863 19.9406L9.60638 20.2234C9.83945 21.855 11.8351 22.5202 13.0005 21.3548L11.5863 19.9406ZM16.1825 18.1728C16.6276 17.7277 16.8372 17.099 16.7482 16.4758L14.7683 16.7586L14.7683 16.7586L16.1825 18.1728ZM4.86874 6.85913L1.68676 10.0411L3.10098 11.4553L6.28296 8.27335L4.86874 6.85913ZM2.81813 13.4352L5.78798 13.8595L6.07082 11.8796L3.10098 11.4553L2.81813 13.4352ZM8.5457 6.57629L6.5658 6.29345L6.28296 8.27335L8.26285 8.55619L8.5457 6.57629ZM1.68676 10.0411C0.521385 11.2065 1.18661 13.2022 2.81813 13.4352L3.10098 11.4553L3.10098 11.4553L1.68676 10.0411ZM6.28296 8.27335L6.5658 6.29345C5.94261 6.20442 5.31388 6.414 4.86874 6.85913L6.28296 8.27335Z" fill="#38F2AF"/>
</svg>
