<svg width="21" height="21" viewBox="0 0 21 21" fill="none" xmlns="http://www.w3.org/2000/svg">
<path fill-rule="evenodd" clip-rule="evenodd" d="M7.875 1.75C11.2577 1.75 14 4.49226 14 7.875C14 11.2577 11.2577 14 7.875 14C7.1398 14 6.4367 13.8708 5.78591 13.6347C5.49905 13.5307 5.18006 13.5074 4.86892 13.5838C4.03321 13.7891 3.18007 13.9193 2.31968 13.9725C2.64322 13.1201 2.755 12.1985 2.64127 11.2882C2.61596 11.0857 2.54973 10.9081 2.47106 10.7612C2.01115 9.9021 1.75 8.92035 1.75 7.875C1.75 4.49226 4.49226 1.75 7.875 1.75ZM15.75 7.875C15.75 3.52576 12.2242 0 7.875 0C3.52576 0 0 3.52576 0 7.875C0 9.20211 0.328981 10.4549 0.910538 11.5539C1.00131 12.364 0.833107 13.1847 0.426415 13.8964L0.390526 13.9592C-0.0654504 14.7571 0.510723 15.75 1.42978 15.75C2.71416 15.75 3.99116 15.597 5.23418 15.296C6.06082 15.5902 6.95018 15.75 7.875 15.75C12.2242 15.75 15.75 12.2242 15.75 7.875ZM17.8108 7.22586C17.4414 7.53745 17.3946 8.08948 17.7062 8.45886C18.6699 9.60136 19.25 11.0756 19.25 12.6875C19.25 13.8098 18.969 14.8638 18.4743 15.7857C18.395 15.9335 18.3291 16.1108 18.3037 16.3122C18.1786 17.3015 18.3066 18.3037 18.6718 19.2257C17.7213 19.1722 16.7787 19.0306 15.856 18.8032C15.5446 18.7264 15.2248 18.7496 14.9369 18.8546C14.2365 19.1102 13.4793 19.25 12.6875 19.25C11.0756 19.25 9.60136 18.67 8.45886 17.7062C8.08948 17.3946 7.53745 17.4414 7.22585 17.8108C6.91426 18.1802 6.96111 18.7322 7.33048 19.0438C8.77684 20.2639 10.6473 21 12.6875 21C13.6695 21 14.6135 20.8293 15.4904 20.5154C16.8119 20.8366 18.1698 21 19.5355 21C20.47 21 21.0559 19.9905 20.5923 19.1791L20.5541 19.1123C20.1145 18.343 19.9337 17.4555 20.034 16.5799C20.6509 15.4178 21 14.0921 21 12.6875C21 10.6473 20.2639 8.77684 19.0438 7.33049C18.7322 6.96111 18.1802 6.91426 17.8108 7.22586ZM4.375 8.75C4.85825 8.75 5.25 8.35825 5.25 7.875C5.25 7.39175 4.85825 7 4.375 7C3.89175 7 3.5 7.39175 3.5 7.875C3.5 8.35825 3.89175 8.75 4.375 8.75ZM8.75 7.875C8.75 8.35825 8.35825 8.75 7.875 8.75C7.39175 8.75 7 8.35825 7 7.875C7 7.39175 7.39175 7 7.875 7C8.35825 7 8.75 7.39175 8.75 7.875ZM11.375 8.75C11.8582 8.75 12.25 8.35825 12.25 7.875C12.25 7.39175 11.8582 7 11.375 7C10.8918 7 10.5 7.39175 10.5 7.875C10.5 8.35825 10.8918 8.75 11.375 8.75Z" fill="#38F2AF"/>
</svg>
