<svg width="23" height="20" viewBox="0 0 23 20" fill="none" xmlns="http://www.w3.org/2000/svg">
<path d="M2.85742 0.599609H19.2861C20.138 0.599835 20.828 1.29073 20.8281 2.14258C20.8281 2.20585 20.7771 2.25684 20.7139 2.25684H3.57129C2.84539 2.25691 2.25691 2.84539 2.25684 3.57129C2.25684 4.29726 2.84534 4.88567 3.57129 4.88574H20.5889C21.5408 4.88574 22.2568 5.60994 22.2568 6.42871V17.8574C22.2567 18.6761 21.5407 19.4004 20.5889 19.4004H2.85742C1.61067 19.4004 0.599609 18.3893 0.599609 17.1426V2.85742C0.599609 1.61067 1.61067 0.599609 2.85742 0.599609ZM18.5713 10.1143C17.4512 10.1143 16.5431 11.0225 16.543 12.1426C16.543 13.2627 17.4511 14.1718 18.5713 14.1719C19.6915 14.1719 20.5996 13.2628 20.5996 12.1426C20.5995 11.0225 19.6914 10.1143 18.5713 10.1143Z" stroke="#38F2AF" stroke-width="1.2"/>
</svg>
